<?xml version="1.0" encoding="utf-8"?>
<!-- Generator: Adobe Illustrator 19.0.0, SVG Export Plug-In . SVG Version: 6.00 Build 0)  -->
<svg version="1.1" id="Guides" xmlns="http://www.w3.org/2000/svg" xmlns:xlink="http://www.w3.org/1999/xlink" x="0px" y="0px"
	 viewBox="0 0 1024 768" style="enable-background:new 0 0 1024 768;" xml:space="preserve">
<style type="text/css">
	.st0{fill:#C2D9F1;stroke:#3A4EA2;stroke-width:16;}
	.st1{fill:none;stroke:#000000;stroke-width:16;}
	.st2{fill:none;}
	.st3{font-family:'TrebuchetMS';}
	.st4{font-size:60px;}
	.st5{fill:#231F20;}
	.st6{fill:#3A4EA2;stroke:#3A4EA2;stroke-width:16;}
</style>
<rect x="86" y="21.1" class="st0" width="486" height="567"/>
<path class="st1" d="M222.1,281c0,55.3,44.7,100,100,100"/>
<path class="st1" d="M322.9,380.1c55.3,1,100.8-42.9,101.8-98.2"/>
<line class="st1" x1="421.8" y1="282.8" x2="422.8" y2="282.8"/>
<line class="st1" x1="424.7" y1="282.8" x2="424.7" y2="108.1"/>
<g>
	<rect x="106.4" y="402.3" class="st2" width="445.3" height="66.7"/>
	<text transform="matrix(1 0 0 1 106.3989 446.5531)" class="st3 st4">Market Research</text>
	<rect x="106.4" y="402.3" class="st2" width="445.3" height="66.7"/>
	<text transform="matrix(1 0 0 1 106.3989 446.5531)" class="st5 st3 st4">Market Research</text>
</g>
<path class="st6" d="M373.7,209.9c1-55.3-43-100.8-98.3-101.7"/>
<path class="st6" d="M274.7,109.1c-55.2-1.9-101.5,41.2-103.5,96.4"/>
<line class="st6" x1="174.1" y1="204.6" x2="173.1" y2="204.6"/>
<line class="st6" x1="169.9" y1="204.6" x2="169.5" y2="379.3"/>
<line class="st6" x1="373.7" y1="209.9" x2="374.1" y2="258.9"/>
</svg>
